<?xml version="1.0" encoding="utf-8"?>
<!-- Generator: Adobe Illustrator 16.0.0, SVG Export Plug-In . SVG Version: 6.00 Build 0)  -->
<!DOCTYPE svg PUBLIC "-//W3C//DTD SVG 1.1//EN" "http://www.w3.org/Graphics/SVG/1.1/DTD/svg11.dtd">
<svg version="1.1" id="Layer_1" xmlns="http://www.w3.org/2000/svg" xmlns:xlink="http://www.w3.org/1999/xlink" x="0px" y="0px"
	 width="595.28px" height="841.89px" viewBox="0 0 595.28 841.89" enable-background="new 0 0 595.28 841.89" xml:space="preserve">
<linearGradient id="SVGID_1_" gradientUnits="userSpaceOnUse" x1="58.1367" y1="817.3359" x2="137.5205" y2="817.3359">
	<stop  offset="0.1771" style="stop-color:#E36A5D"/>
	<stop  offset="0.8994" style="stop-color:#ED503C"/>
</linearGradient>
<path fill="none" stroke="url(#SVGID_1_)" stroke-width="30" stroke-linecap="round" stroke-miterlimit="10" d="M122.521,799.5
	c0,0-11.181,30.592-49.384,35.671"/>
<circle fill="#569EA0" cx="314.258" cy="351" r="102"/>
<linearGradient id="SVGID_2_" gradientUnits="userSpaceOnUse" x1="209.2583" y1="345" x2="412.662" y2="345">
	<stop  offset="0.5589" style="stop-color:#6BBBC1"/>
	<stop  offset="0.8994" style="stop-color:#4DB0BC"/>
</linearGradient>
<circle fill="url(#SVGID_2_)" cx="311.258" cy="345" r="102"/>
<polygon fill="#E36A5D" points="546.332,146.804 471.114,190.666 482.474,218.638 446.333,272.995 521.001,225.093 510.447,200.778 
	"/>
<g>
	<rect x="179.383" y="551.754" fill="none" width="164.09" height="79.026"/>
	
		<text transform="matrix(1 -7.805193e-04 7.838790e-04 1 179.4043 615.6895)" fill="#E36A5D" font-family="'LifeSavers-Bold'" font-size="78.9516">flash</text>
</g>
<g>
	<rect x="248.816" y="603.562" fill="none" width="164.09" height="79.029"/>
	
		<text transform="matrix(1 -7.805193e-04 7.838790e-04 1 248.8374 667.499)" fill="#6BBBC1" font-family="'LifeSavers-Bold'" font-size="78.9516">som</text>
</g>
<g>
	<polygon fill="#FFFFFF" points="326.553,338.621 354.755,290.837 272.905,344.765 298.18,349.885 268.344,397.337 351.82,343.738 	
		"/>
</g>
<linearGradient id="SVGID_3_" gradientUnits="userSpaceOnUse" x1="-83.5557" y1="309.1094" x2="-34.7466" y2="309.1094" gradientTransform="matrix(0.6485 0.7612 -0.7612 0.6485 370.5747 73.7129)">
	<stop  offset="0.5589" style="stop-color:#6BBBC1"/>
	<stop  offset="0.8994" style="stop-color:#4DB0BC"/>
</linearGradient>
<path fill="none" stroke="url(#SVGID_3_)" stroke-width="30" stroke-linecap="round" stroke-miterlimit="10" d="M124.099,215.944
	c0,0-17.113,27.714-55.556,24.994"/>
<linearGradient id="SVGID_4_" gradientUnits="userSpaceOnUse" x1="9.9736" y1="254.4697" x2="96.7134" y2="254.4697" gradientTransform="matrix(0.7601 -0.6498 0.6498 0.7601 -116.127 118.0229)">
	<stop  offset="0.1771" style="stop-color:#EFB04E"/>
	<stop  offset="0.8994" style="stop-color:#EE7042"/>
</linearGradient>
<path fill="none" stroke="url(#SVGID_4_)" stroke-width="30" stroke-linecap="round" stroke-miterlimit="10" d="M118.296,266.481
	c0,0-19.486,26.101-57.541,20.01"/>
<linearGradient id="SVGID_5_" gradientUnits="userSpaceOnUse" x1="104.5068" y1="287.6714" x2="183.8916" y2="287.6714" gradientTransform="matrix(0.8903 -0.4553 0.4553 0.8903 -116.3047 95.5188)">
	<stop  offset="0.1771" style="stop-color:#E36A5D"/>
	<stop  offset="0.8994" style="stop-color:#ED503C"/>
</linearGradient>
<path fill="none" stroke="url(#SVGID_5_)" stroke-width="30" stroke-linecap="round" stroke-miterlimit="10" d="M156.927,258.859
	c0,0,3.975,32.327-27.727,54.244"/>
<linearGradient id="SVGID_6_" gradientUnits="userSpaceOnUse" x1="391.1055" y1="657.1895" x2="439.916" y2="657.1895" gradientTransform="matrix(-0.6459 0.7634 -0.7634 -0.6459 1134.3145 677.6108)">
	<stop  offset="0.5589" style="stop-color:#6BBBC1"/>
	<stop  offset="0.8994" style="stop-color:#4DB0BC"/>
</linearGradient>
<path fill="none" stroke="url(#SVGID_6_)" stroke-width="30" stroke-linecap="round" stroke-miterlimit="10" d="M381.652,595.019
	c0,0-30.122-12.389-33.68-50.764"/>
<linearGradient id="SVGID_7_" gradientUnits="userSpaceOnUse" x1="548.123" y1="939.7695" x2="634.8652" y2="939.7695" gradientTransform="matrix(-0.8169 -0.5768 0.5768 -0.8169 347.6499 1689.876)">
	<stop  offset="0.1771" style="stop-color:#EFB04E"/>
	<stop  offset="0.8994" style="stop-color:#EE7042"/>
</linearGradient>
<path fill="none" stroke="url(#SVGID_7_)" stroke-width="30" stroke-linecap="round" stroke-miterlimit="10" d="M389.563,555.911
	c0,0,30.094,12.465,33.557,50.849"/>
<g>
	
		<rect x="183.648" y="51.663" transform="matrix(0.9999 -0.013 0.013 0.9999 -1.1702 3.477)" fill="none" width="166.593" height="80.232"/>
	
		<text transform="matrix(0.9999 -0.013 0.013 0.9999 183.978 117.584)" fill="#E36A5D" font-family="'LifeSavers-Bold'" font-size="80.1557">flash</text>
</g>
<g>
	
		<rect x="246.607" y="101.436" transform="matrix(0.9999 -0.013 0.013 0.9999 -1.8109 4.2974)" fill="none" width="166.593" height="80.234"/>
	
		<text transform="matrix(0.9999 -0.013 0.013 0.9999 246.937 167.3579)" fill="#6BBBC1" font-family="'LifeSavers-Bold'" font-size="80.1557">som</text>
</g>
<linearGradient id="SVGID_8_" gradientUnits="userSpaceOnUse" x1="306.0098" y1="1115.54" x2="354.8203" y2="1115.54" gradientTransform="matrix(-0.4841 0.875 -0.875 -0.4841 1314.4863 385.2285)">
	<stop  offset="0.5589" style="stop-color:#6BBBC1"/>
	<stop  offset="0.8994" style="stop-color:#4DB0BC"/>
</linearGradient>
<path fill="none" stroke="url(#SVGID_8_)" stroke-width="30" stroke-linecap="round" stroke-miterlimit="10" d="M200.337,155.103
	c0,0-31.964-6.257-42.958-43.195"/>
<linearGradient id="SVGID_9_" gradientUnits="userSpaceOnUse" x1="927.5771" y1="1227.832" x2="1014.3193" y2="1227.832" gradientTransform="matrix(-0.9332 -0.3594 0.3594 -0.9332 857.2979 1609.9316)">
	<stop  offset="0.1771" style="stop-color:#EFB04E"/>
	<stop  offset="0.8994" style="stop-color:#EE7042"/>
</linearGradient>
<path fill="none" stroke="url(#SVGID_9_)" stroke-width="30" stroke-linecap="round" stroke-miterlimit="10" d="M369.864,95.002
	c0,0,32.229,4.721,44.979,41.091"/>
</svg>
