<?xml version="1.0" encoding="utf-8"?>
<!-- Generator: Adobe Illustrator 16.0.0, SVG Export Plug-In . SVG Version: 6.00 Build 0)  -->
<!DOCTYPE svg PUBLIC "-//W3C//DTD SVG 1.1//EN" "http://www.w3.org/Graphics/SVG/1.1/DTD/svg11.dtd">
<svg version="1.1" id="Layer_1" xmlns="http://www.w3.org/2000/svg" xmlns:xlink="http://www.w3.org/1999/xlink" x="0px" y="0px"
	 width="45px" height="45px" viewBox="219.125 219.875 45 45" enable-background="new 219.125 219.875 45 45" xml:space="preserve">
<title></title>
<g id="icomoon-ignore">
	<path opacity="0.3" fill="none" stroke="#449FDB" enable-background="new    " d="M144,512"/>
	<path fill="none" stroke="#449FDB" d="M160,512"/>
	<path opacity="0.3" fill="none" stroke="#449FDB" enable-background="new    " d="M176,512"/>
	<path fill="none" stroke="#449FDB" d="M192,512"/>
	<path opacity="0.3" fill="none" stroke="#449FDB" enable-background="new    " d="M208,512"/>
	<path fill="none" stroke="#449FDB" d="M224,512"/>
	<path opacity="0.3" fill="none" stroke="#449FDB" enable-background="new    " d="M240,512"/>
	<path fill="none" stroke="#449FDB" d="M256,512"/>
	<path opacity="0.3" fill="none" stroke="#449FDB" enable-background="new    " d="M272,512"/>
	<path fill="none" stroke="#449FDB" d="M288,512"/>
	<path opacity="0.3" fill="none" stroke="#449FDB" enable-background="new    " d="M304,512"/>
	<path fill="none" stroke="#449FDB" d="M320,512"/>
	<path opacity="0.3" fill="none" stroke="#449FDB" enable-background="new    " d="M336,512"/>
	<path fill="none" stroke="#449FDB" d="M352,512"/>
	<path opacity="0.3" fill="none" stroke="#449FDB" enable-background="new    " d="M368,512"/>
	<path fill="none" stroke="#449FDB" d="M384,512"/>
	<path opacity="0.3" fill="none" stroke="#449FDB" enable-background="new    " d="M400,512"/>
	<path fill="none" stroke="#449FDB" d="M416,512"/>
	<path opacity="0.3" fill="none" stroke="#449FDB" enable-background="new    " d="M432,512"/>
	<path fill="none" stroke="#449FDB" d="M448,512"/>
	<path opacity="0.3" fill="none" stroke="#449FDB" enable-background="new    " d="M464,512"/>
	<path fill="none" stroke="#449FDB" d="M480,512"/>
	<path opacity="0.3" fill="none" stroke="#449FDB" enable-background="new    " d="M496,512"/>
</g>
<path d="M263.535,236.009l-15.342-2.23l-6.863-13.904l-6.861,13.904l-15.344,2.229l11.103,10.823l-2.621,15.281l13.724-7.215
	l13.723,7.215l-2.622-15.281L263.535,236.009L263.535,236.009z"/>
</svg>
